<mxfile host="app.diagrams.net" agent="Mozilla/5.0 (Windows NT 10.0; Win64; x64) AppleWebKit/537.36 (KHTML, like Gecko) Chrome/137.0.0.0 Safari/537.36 Edg/137.0.0.0" version="27.1.1">
  <diagram name="PÃ¡gina-1" id="mVJ2pNMt-R0lbhm2W-hn">
    <mxGraphModel dx="1370" dy="633" grid="1" gridSize="10" guides="1" tooltips="1" connect="1" arrows="1" fold="1" page="1" pageScale="1" pageWidth="827" pageHeight="1169" math="0" shadow="0">
      <root>
        <mxCell id="0" />
        <mxCell id="1" parent="0" />
        <mxCell id="rtdxqtQ3lWqJHw3uHsTH-1" value="&lt;p style=&quot;margin:0px;margin-top:4px;text-align:center;&quot;&gt;&lt;b&gt;Game&lt;/b&gt;&lt;/p&gt;&lt;hr size=&quot;1&quot; style=&quot;border-style:solid;&quot;&gt;&lt;div style=&quot;height:2px;&quot;&gt;&lt;/div&gt;" style="verticalAlign=top;align=left;overflow=fill;html=1;whiteSpace=wrap;" vertex="1" parent="1">
          <mxGeometry x="325" y="280" width="140" height="60" as="geometry" />
        </mxCell>
        <mxCell id="rtdxqtQ3lWqJHw3uHsTH-2" value="main.c" style="html=1;whiteSpace=wrap;" vertex="1" parent="1">
          <mxGeometry x="340" y="170" width="110" height="50" as="geometry" />
        </mxCell>
        <mxCell id="rtdxqtQ3lWqJHw3uHsTH-3" value="" style="endArrow=open;endFill=1;endSize=12;html=1;rounded=0;entryX=0.5;entryY=0;entryDx=0;entryDy=0;exitX=0.5;exitY=1;exitDx=0;exitDy=0;" edge="1" parent="1" source="rtdxqtQ3lWqJHw3uHsTH-2" target="rtdxqtQ3lWqJHw3uHsTH-1">
          <mxGeometry width="160" relative="1" as="geometry">
            <mxPoint x="190" y="220" as="sourcePoint" />
            <mxPoint x="350" y="220" as="targetPoint" />
          </mxGeometry>
        </mxCell>
        <mxCell id="rtdxqtQ3lWqJHw3uHsTH-5" value="" style="endArrow=open;endFill=1;endSize=12;html=1;rounded=0;entryX=0;entryY=0.5;entryDx=0;entryDy=0;" edge="1" parent="1" target="rtdxqtQ3lWqJHw3uHsTH-6">
          <mxGeometry width="160" relative="1" as="geometry">
            <mxPoint x="463.56" y="323.8" as="sourcePoint" />
            <mxPoint x="600" y="326.2" as="targetPoint" />
          </mxGeometry>
        </mxCell>
        <mxCell id="rtdxqtQ3lWqJHw3uHsTH-6" value="&lt;p style=&quot;margin:0px;margin-top:4px;text-align:center;&quot;&gt;&lt;b&gt;&amp;lt;union&amp;gt;&lt;br&gt;menu&lt;/b&gt;&lt;/p&gt;&lt;hr size=&quot;1&quot; style=&quot;border-style:solid;&quot;&gt;&lt;p style=&quot;margin:0px;margin-left:4px;&quot;&gt;- MainMenu&lt;br&gt;- GameOver&lt;br&gt;- Victory&lt;/p&gt;&lt;hr size=&quot;1&quot; style=&quot;border-style:solid;&quot;&gt;&lt;p style=&quot;margin:0px;margin-left:4px;&quot;&gt;&lt;br&gt;&lt;/p&gt;" style="verticalAlign=top;align=left;overflow=fill;html=1;whiteSpace=wrap;" vertex="1" parent="1">
          <mxGeometry x="570" y="280" width="160" height="90" as="geometry" />
        </mxCell>
        <mxCell id="rtdxqtQ3lWqJHw3uHsTH-7" value="&lt;p style=&quot;margin:0px;margin-top:4px;text-align:center;&quot;&gt;&lt;b&gt;Cursor&lt;/b&gt;&lt;/p&gt;&lt;hr size=&quot;1&quot; style=&quot;border-style:solid;&quot;&gt;&lt;div style=&quot;height:2px;&quot;&gt;&lt;/div&gt;" style="verticalAlign=top;align=left;overflow=fill;html=1;whiteSpace=wrap;" vertex="1" parent="1">
          <mxGeometry x="80" y="290" width="140" height="40" as="geometry" />
        </mxCell>
        <mxCell id="rtdxqtQ3lWqJHw3uHsTH-8" value="" style="endArrow=open;endFill=1;endSize=12;html=1;rounded=0;entryX=1;entryY=0.5;entryDx=0;entryDy=0;" edge="1" parent="1" target="rtdxqtQ3lWqJHw3uHsTH-7">
          <mxGeometry width="160" relative="1" as="geometry">
            <mxPoint x="325" y="309.5" as="sourcePoint" />
            <mxPoint x="485" y="309.5" as="targetPoint" />
          </mxGeometry>
        </mxCell>
        <mxCell id="rtdxqtQ3lWqJHw3uHsTH-10" value="&lt;p style=&quot;margin:0px;margin-top:4px;text-align:center;&quot;&gt;&lt;b&gt;Level&lt;/b&gt;&lt;/p&gt;&lt;hr size=&quot;1&quot; style=&quot;border-style:solid;&quot;&gt;&lt;div style=&quot;height:2px;&quot;&gt;&lt;/div&gt;" style="verticalAlign=top;align=left;overflow=fill;html=1;whiteSpace=wrap;" vertex="1" parent="1">
          <mxGeometry x="325" y="430" width="140" height="40" as="geometry" />
        </mxCell>
        <mxCell id="rtdxqtQ3lWqJHw3uHsTH-11" value="Drivers" style="shape=folder;fontStyle=1;spacingTop=10;tabWidth=40;tabHeight=14;tabPosition=left;html=1;whiteSpace=wrap;" vertex="1" parent="1">
          <mxGeometry x="65" y="360" width="155" height="110" as="geometry" />
        </mxCell>
        <mxCell id="rtdxqtQ3lWqJHw3uHsTH-12" value="" style="endArrow=open;endFill=1;endSize=12;html=1;rounded=0;entryX=0;entryY=0;entryDx=155;entryDy=14;entryPerimeter=0;" edge="1" parent="1" target="rtdxqtQ3lWqJHw3uHsTH-11">
          <mxGeometry width="160" relative="1" as="geometry">
            <mxPoint x="325" y="340" as="sourcePoint" />
            <mxPoint x="485" y="340" as="targetPoint" />
          </mxGeometry>
        </mxCell>
        <mxCell id="rtdxqtQ3lWqJHw3uHsTH-13" value="" style="endArrow=open;endFill=1;endSize=12;html=1;rounded=0;entryX=0.5;entryY=0;entryDx=0;entryDy=0;exitX=0.5;exitY=1;exitDx=0;exitDy=0;" edge="1" parent="1" source="rtdxqtQ3lWqJHw3uHsTH-1" target="rtdxqtQ3lWqJHw3uHsTH-10">
          <mxGeometry width="160" relative="1" as="geometry">
            <mxPoint x="390" y="340" as="sourcePoint" />
            <mxPoint x="550" y="340" as="targetPoint" />
          </mxGeometry>
        </mxCell>
        <mxCell id="rtdxqtQ3lWqJHw3uHsTH-14" value="&lt;p style=&quot;margin:0px;margin-top:4px;text-align:center;&quot;&gt;&lt;b&gt;Maze&lt;/b&gt;&lt;/p&gt;&lt;hr size=&quot;1&quot; style=&quot;border-style:solid;&quot;&gt;&lt;div style=&quot;height:2px;&quot;&gt;&lt;/div&gt;" style="verticalAlign=top;align=left;overflow=fill;html=1;whiteSpace=wrap;" vertex="1" parent="1">
          <mxGeometry x="550" y="430" width="140" height="60" as="geometry" />
        </mxCell>
        <mxCell id="rtdxqtQ3lWqJHw3uHsTH-15" value="" style="endArrow=open;endFill=1;endSize=12;html=1;rounded=0;entryX=0;entryY=0.5;entryDx=0;entryDy=0;" edge="1" parent="1" target="rtdxqtQ3lWqJHw3uHsTH-14">
          <mxGeometry width="160" relative="1" as="geometry">
            <mxPoint x="465" y="459.5" as="sourcePoint" />
            <mxPoint x="625" y="459.5" as="targetPoint" />
          </mxGeometry>
        </mxCell>
        <mxCell id="rtdxqtQ3lWqJHw3uHsTH-16" value="" style="endArrow=diamondThin;endFill=1;endSize=24;html=1;rounded=0;entryX=0.5;entryY=1;entryDx=0;entryDy=0;" edge="1" parent="1" target="rtdxqtQ3lWqJHw3uHsTH-14">
          <mxGeometry width="160" relative="1" as="geometry">
            <mxPoint x="620" y="570" as="sourcePoint" />
            <mxPoint x="640" y="520" as="targetPoint" />
          </mxGeometry>
        </mxCell>
        <mxCell id="rtdxqtQ3lWqJHw3uHsTH-17" value="&lt;p style=&quot;margin:0px;margin-top:4px;text-align:center;&quot;&gt;&lt;b&gt;Mob&lt;/b&gt;&lt;/p&gt;&lt;hr size=&quot;1&quot; style=&quot;border-style:solid;&quot;&gt;&lt;div style=&quot;height:2px;&quot;&gt;&lt;/div&gt;" style="verticalAlign=top;align=left;overflow=fill;html=1;whiteSpace=wrap;" vertex="1" parent="1">
          <mxGeometry x="550" y="570" width="140" height="40" as="geometry" />
        </mxCell>
        <mxCell id="rtdxqtQ3lWqJHw3uHsTH-20" value="Raycating" style="shape=card;whiteSpace=wrap;html=1;" vertex="1" parent="1">
          <mxGeometry x="374" y="520" width="80" height="100" as="geometry" />
        </mxCell>
        <mxCell id="rtdxqtQ3lWqJHw3uHsTH-22" value="" style="endArrow=open;endFill=1;endSize=12;html=1;rounded=0;entryX=0;entryY=0;entryDx=15;entryDy=15;entryPerimeter=0;" edge="1" parent="1" target="rtdxqtQ3lWqJHw3uHsTH-20">
          <mxGeometry width="160" relative="1" as="geometry">
            <mxPoint x="390" y="470" as="sourcePoint" />
            <mxPoint x="550" y="470" as="targetPoint" />
          </mxGeometry>
        </mxCell>
        <mxCell id="rtdxqtQ3lWqJHw3uHsTH-23" value="&lt;p style=&quot;margin:0px;margin-top:4px;text-align:center;&quot;&gt;&lt;b&gt;Player&lt;/b&gt;&lt;/p&gt;&lt;hr size=&quot;1&quot; style=&quot;border-style:solid;&quot;&gt;&lt;div style=&quot;height:2px;&quot;&gt;&lt;/div&gt;" style="verticalAlign=top;align=left;overflow=fill;html=1;whiteSpace=wrap;" vertex="1" parent="1">
          <mxGeometry x="185" y="600" width="140" height="40" as="geometry" />
        </mxCell>
        <mxCell id="rtdxqtQ3lWqJHw3uHsTH-24" value="" style="endArrow=open;endFill=1;endSize=12;html=1;rounded=0;entryX=1;entryY=0;entryDx=0;entryDy=0;" edge="1" parent="1" target="rtdxqtQ3lWqJHw3uHsTH-23">
          <mxGeometry width="160" relative="1" as="geometry">
            <mxPoint x="325" y="469" as="sourcePoint" />
            <mxPoint x="485" y="469" as="targetPoint" />
          </mxGeometry>
        </mxCell>
        <mxCell id="rtdxqtQ3lWqJHw3uHsTH-25" value="&lt;p style=&quot;margin:0px;margin-top:4px;text-align:center;&quot;&gt;&lt;b&gt;Bullet&lt;/b&gt;&lt;/p&gt;&lt;hr size=&quot;1&quot; style=&quot;border-style:solid;&quot;&gt;&lt;div style=&quot;height:2px;&quot;&gt;&lt;/div&gt;" style="verticalAlign=top;align=left;overflow=fill;html=1;whiteSpace=wrap;" vertex="1" parent="1">
          <mxGeometry x="170" y="510" width="120" height="30" as="geometry" />
        </mxCell>
        <mxCell id="rtdxqtQ3lWqJHw3uHsTH-26" value="" style="endArrow=open;endFill=1;endSize=12;html=1;rounded=0;entryX=1;entryY=0;entryDx=0;entryDy=0;exitX=0;exitY=1;exitDx=0;exitDy=0;" edge="1" parent="1" source="rtdxqtQ3lWqJHw3uHsTH-10" target="rtdxqtQ3lWqJHw3uHsTH-25">
          <mxGeometry width="160" relative="1" as="geometry">
            <mxPoint x="330" y="470" as="sourcePoint" />
            <mxPoint x="494" y="470" as="targetPoint" />
          </mxGeometry>
        </mxCell>
        <mxCell id="rtdxqtQ3lWqJHw3uHsTH-27" value="data_s" style="shape=folder;fontStyle=1;spacingTop=10;tabWidth=40;tabHeight=14;tabPosition=left;html=1;whiteSpace=wrap;" vertex="1" parent="1">
          <mxGeometry x="740" y="435" width="70" height="50" as="geometry" />
        </mxCell>
        <mxCell id="rtdxqtQ3lWqJHw3uHsTH-28" value="" style="endArrow=open;endFill=1;endSize=12;html=1;rounded=0;entryX=0;entryY=0;entryDx=0;entryDy=32;entryPerimeter=0;" edge="1" parent="1" target="rtdxqtQ3lWqJHw3uHsTH-27">
          <mxGeometry width="160" relative="1" as="geometry">
            <mxPoint x="690" y="468.89" as="sourcePoint" />
            <mxPoint x="850" y="468.89" as="targetPoint" />
          </mxGeometry>
        </mxCell>
      </root>
    </mxGraphModel>
  </diagram>
</mxfile>
